<?xml version="1.0" standalone="no"?>
<!DOCTYPE svg PUBLIC "-//W3C//DTD SVG 20010904//EN"
 "http://www.w3.org/TR/2001/REC-SVG-20010904/DTD/svg10.dtd">
<svg version="1.0" xmlns="http://www.w3.org/2000/svg"
 width="512.000000pt" height="512.000000pt" viewBox="0 0 512.000000 512.000000"
 preserveAspectRatio="xMidYMid meet">
<metadata>
Created by potrace 1.14, written by Peter Selinger 2001-2017
</metadata>
<g transform="translate(0.000000,512.000000) scale(0.100000,-0.100000)"
fill="#000000" stroke="none">
<path d="M1537 4404 c-258 -62 -460 -281 -505 -547 -22 -127 1 -309 53 -431
79 -184 265 -342 455 -387 221 -51 484 46 627 232 281 367 167 902 -233 1091
-117 55 -275 72 -397 42z m275 -291 c102 -45 190 -160 217 -283 14 -65 6 -196
-18 -262 -39 -111 -129 -211 -225 -247 -70 -27 -183 -23 -246 7 -142 69 -231
223 -231 397 1 303 255 500 503 388z"/>
<path d="M3300 3844 c-383 -106 -590 -509 -464 -904 72 -227 247 -397 469
-455 58 -15 194 -21 244 -11 269 56 465 251 531 528 15 65 19 107 16 193 -5
123 -8 142 -38 223 -73 198 -230 353 -418 414 -87 28 -262 34 -340 12z m228
-266 c89 -22 189 -101 232 -185 98 -191 62 -421 -88 -561 -64 -59 -127 -85
-215 -88 -72 -2 -84 1 -147 32 -133 67 -215 201 -224 364 -10 208 99 380 277
435 53 17 106 18 165 3z"/>
<path d="M1568 2855 c-2 -1 -34 -5 -73 -8 -259 -21 -550 -135 -753 -295 -230
-181 -372 -425 -372 -637 1 -143 63 -215 217 -251 59 -14 168 -16 851 -17 709
0 782 -2 776 -16 -52 -123 -73 -218 -67 -300 9 -124 75 -193 215 -226 92 -21
2059 -22 2159 -1 105 23 171 63 205 127 26 47 27 211 1 289 -124 374 -508 665
-997 756 -97 18 -377 26 -460 14 -30 -4 -75 -11 -100 -14 -25 -4 -88 -19 -140
-33 -143 -38 -134 -38 -150 -6 -54 104 -180 242 -310 339 -162 121 -424 231
-617 259 -23 3 -57 8 -75 11 -36 5 -305 14 -310 9z m250 -279 c196 -19 374
-80 537 -185 87 -56 221 -190 258 -258 l28 -52 -48 -32 c-54 -38 -71 -51 -123
-96 l-37 -33 -870 0 c-752 0 -872 2 -883 15 -9 11 -9 27 -1 67 60 280 452 543
854 574 45 4 83 7 84 8 4 4 133 -2 201 -8z m1816 -561 c84 -11 214 -45 295
-78 154 -62 259 -131 361 -237 81 -85 124 -156 147 -243 17 -65 17 -69 0 -81
-27 -20 -1962 -20 -1978 0 -26 31 14 157 77 240 21 29 28 31 83 33 226 5 346
87 354 239 1 35 7 54 17 58 79 32 232 66 355 77 48 4 233 -1 289 -8z"/>
</g>
</svg>
